<?xml version="1.0" encoding="UTF-8"?>
<svg id="Logo2" xmlns="http://www.w3.org/2000/svg" viewBox="0 0 686.42 734.6">
  <defs>
    <style>
      .cls-1 {
        fill: #090a0a;
      }

      .cls-2 {
        fill: #1d1d1b;
      }
    </style>
  </defs>
  <path class="cls-2" d="m472.87,283.51h-45.15v-10.8h47.4v-4.5h-36.3c-7.27,0-13.05-5.85-13.05-13.05s5.77-13.05,13.05-13.05h45.15v10.8h-47.4v4.5h36.3c7.2,0,13.05,5.85,13.05,13.05s-5.85,13.05-13.05,13.05Z"/>
  <path class="cls-2" d="m422.92,270.46c0,7.2-5.85,13.05-13.05,13.05h-32.1c-7.2,0-13.05-5.85-13.05-13.05v-15.3c0-7.2,5.85-13.05,13.05-13.05h32.1c7.2,0,13.05,5.85,13.05,13.05v15.3Zm-10.8,2.25v-19.8h-36.6v19.8h36.6Z"/>
  <path class="cls-2" d="m359.92,270.46c0,7.2-5.85,13.05-13.05,13.05h-34.35v-10.8h36.6v-30.6h10.8v28.35Z"/>
  <path class="cls-2" d="m310.42,242.12v31.5c0,6-4.8,10.8-10.8,10.8-3,0-5.7-1.2-7.65-3.15l-29.4-29.25v31.5h-10.8v-31.5c0-6,4.88-10.8,10.8-10.8,3,0,5.62,1.27,7.65,3.23l29.4,29.17v-31.5h10.8Z"/>
  <path class="cls-2" d="m246.97,283.51h-45.15c-7.2,0-13.05-5.85-13.05-13.05v-15.3c0-7.2,5.85-13.05,13.05-13.05h45.15v10.8h-47.4v4.5h47.4v10.8h-47.4v4.5h47.4v10.8Z"/>
  <g>
    <path class="cls-1" d="m169.21,250.37v1.06c0,.12.1.22.22.22h3.01c1.93,0,3.5,1.43,3.5,3.2,0,.61-.19,1.18-.51,1.67-.09.14-.01.32.15.35l.23.03c3.35.46,6.31,2.01,8.43,4.24.1.1.27.08.35-.04,1.14-1.84,1.79-3.97,1.79-6.24h0c0-7.03-6.24-12.74-13.94-12.74h-3.01c-.12,0-.22.1-.22.22v8.03Z"/>
    <path class="cls-1" d="m136.29,275.26v-6.53c0-.1-.07-.19-.17-.22-3.86-.85-7.1-3.18-8.95-6.29-.12-.19-.41-.11-.41.11v20.95c0,.12.1.22.22.22h9.1c.12,0,.22-.1.22-.22v-8.03Z"/>
    <path class="cls-1" d="m186.37,270.78c0,3.52-1.56,6.7-4.08,9.01-2.52,2.31-6.01,3.73-9.86,3.73h-34.2c-.12,0-.22-.1-.22-.22v-9.1c0-.12.1-.22.22-.22h34.2c1.93,0,3.5-1.43,3.5-3.2s-1.42-3.06-3.23-3.19h-32.02c-7.7,0-13.94-5.7-13.94-12.74,0-3.52,1.56-6.7,4.08-9.01,2.52-2.31,6.01-3.73,9.85-3.73h26.58c.12,0,.22.1.22.22v9.1c0,.12-.1.22-.22.22h-26.58c-1.93,0-3.5,1.43-3.5,3.2s1.57,3.2,3.5,3.2h32.29c.52.02,1.04.06,1.55.13,6.71.92,11.85,6.21,11.85,12.6Z"/>
  </g>
</svg>