<?xml version="1.0" encoding="UTF-8"?>
<svg id="Calque_1" data-name="Calque 1" xmlns="http://www.w3.org/2000/svg" viewBox="0 0 720 720">
  <defs>
    <style>
      .cls-1 {
        fill: #1d1d1b;
      }
    </style>
  </defs>
  <path class="cls-1" d="m222.54,334.98c-4.72,1.42-12.15,3.22-19.5,3.22s-13.5-1.65-18.37-5.17c-4.65-3.38-7.88-9.22-7.88-17.1,0-9.6,4.2-17.02,10.87-22.05,6.38-4.8,15.07-7.27,24.9-7.27,7.42,0,13.42,1.35,15.75,2.47l-3.82,11.1c-2.48-1.05-7.2-2.32-12.45-2.32s-9.6,1.12-12.97,3.22c-4.42,2.85-7.35,7.65-7.35,13.65,0,8.77,6.15,12.22,13.87,12.22,2.77,0,4.27-.38,5.32-.82l1.58-8.02h-7.87l2.1-10.57h21.07l-5.25,27.45Z"/>
  <path class="cls-1" d="m247.82,325.23l-5.47,12.45h-14.7l25.27-50.55h17.92l7.2,50.55h-14.4l-.9-12.45h-14.92Zm14.17-10.2l-.9-8.92c-.3-2.85-.67-6.52-1.05-9.45h-.15c-1.35,2.92-2.7,6.6-4.12,9.52l-3.98,8.85h10.2Z"/>
  <path class="cls-1" d="m328.97,337.68l3.08-18.82c1.05-6.3,2.17-13.27,3.9-22.05h-.15c-3.3,7.2-6.83,14.92-10.05,21.52l-8.92,18.3h-10.65l-1.12-18.22c-.38-6.22-.75-14.1-1.12-21.6h-.15c-1.73,7.73-3.23,15.82-4.65,22.05l-4.27,18.82h-12.45l12.37-50.55h19.12l.6,12.75c.23,5.32.9,11.62.9,19.05h.38c2.7-7.42,5.85-14.17,8.25-19.2l6.07-12.6h19.42l-7.2,50.55h-13.35Z"/>
  <path class="cls-1" d="m388.37,317.66h-20.17l-1.65,8.77h22.57l-2.1,11.25h-36l9.52-50.55h34.87l-2.18,11.25h-21.45l-1.5,8.02h20.25l-2.17,11.25Z"/>
  <path class="cls-1" d="m403.97,288.11c4.2-.83,9.75-1.35,15.6-1.35s9.22.45,13.05,1.8c4.35,1.5,8.1,5.17,8.1,10.42,0,6.45-4.5,9.75-9.97,11.4v.15c4.95,1.58,8.17,5.4,8.17,11.02,0,6-3.3,9.82-7.88,12.6-4.65,2.77-11.85,3.9-21.3,3.9-6.6,0-12.38-.52-14.92-1.12l9.15-48.82Zm5.7,39.37c1.27.15,2.55.15,4.35.15,5.4,0,10.5-1.57,10.5-6.07,0-4.8-4.58-5.4-9.75-5.4h-3l-2.1,11.32Zm4.2-21h3.83c5.47,0,9.15-1.65,9.15-4.95s-3.22-4.27-6.9-4.27c-2.03,0-3.53.15-4.35.3l-1.73,8.92Z"/>
  <path class="cls-1" d="m500.12,309.26c0,8.7-3.15,16.05-8.55,21.22-5.33,5.1-12.83,8.1-21.67,8.1-13.65,0-23.7-8.4-23.7-22.8,0-8.77,3.3-16.2,8.78-21.37,5.47-5.17,12.97-8.17,21.52-8.17,13.8,0,23.62,8.1,23.62,23.02Zm-34.12-8.17c-3.45,3.45-5.4,8.7-5.4,13.8,0,8.1,3.9,12.75,11.25,12.75,3.3,0,6.3-1.42,8.62-3.75,3.3-3.3,5.25-8.47,5.25-13.8,0-7.27-2.85-12.9-10.72-12.9-3.52,0-6.6,1.5-9,3.9Z"/>
  <path class="cls-1" d="m509.72,337.68l3.98-21.07-11.7-29.47h14.33l3.15,11.47c.97,3.45,1.72,5.62,2.47,8.77h.15c1.8-2.92,3.38-5.47,5.47-9.07l6.6-11.17h16.57l-23.55,28.95-4.12,21.6h-13.35Z"/>
</svg>