<?xml version="1.0" encoding="UTF-8"?>
<svg id="Calque_1" data-name="Calque 1" xmlns="http://www.w3.org/2000/svg" viewBox="0 0 720 720">
  <defs>
    <style>
      .cls-1 {
        fill: #585ca5;
      }
    </style>
  </defs>
  <polygon class="cls-1" points="299.25 295.58 352.02 266.14 401.25 294.66 350.25 324.57 299.25 295.58"/>
  <path class="cls-1" d="m344.35,335.31s-54.14-30.83-53.84-30.06c.24.61.1,38.53.03,54.37-.02,4.24,2.2,8.17,5.84,10.34l47.97,28.7v-63.34Z"/>
  <path class="cls-1" d="m290.51,381.01l43.87,26.23-28.51,16.94c-6.78,4.03-15.36-.86-15.36-8.74v-34.43Z"/>
  <path class="cls-1" d="m420.49,357.85l-.48-51.11,29.32,15.5c6.97,3.68,7.27,13.55.55,17.66l-29.39,17.95Z"/>
  <path class="cls-1" d="m336.22,257.06l-44.18,25.69-1.03-33.15c-.24-7.88,8.18-13.03,15.08-9.21l30.13,16.67Z"/>
  <path class="cls-1" d="m356.16,335.31s54.14-30.83,53.84-30.06c-.24.61-.1,38.53-.03,54.37.02,4.24-2.2,8.17-5.84,10.34l-47.97,28.7v-63.34Z"/>
</svg>